<?xml version="1.0" standalone="no"?><!DOCTYPE svg PUBLIC "-//W3C//DTD SVG 1.1//EN" "http://www.w3.org/Graphics/SVG/1.1/DTD/svg11.dtd"><svg t="1764076666628" class="icon" viewBox="0 0 1459 1024" version="1.1" xmlns="http://www.w3.org/2000/svg" p-id="2879" xmlns:xlink="http://www.w3.org/1999/xlink" width="284.9609375" height="200"><path d="M1225.756111 814.294818c5.484971-50.713501-59.975009-98.909311-145.396687-106.372468-8.002662-0.71934-16.005325-1.168928-24.007987-1.168928-22.749141-40.013312-82.724151-71.934044-155.827123-79.037531-70.045775-6.474064-133.077982 12.048952-165.628136 44.239437a171.832448 171.832448 0 0 0-106.192633-44.059602C566.480597 621.87125 512.530064 642.012782 492.478449 674.383102a234.774736 234.774736 0 0 0-42.890674-8.182498c-82.00481-7.642992-152.859844 25.446668-157.985144 74.002148a55.838802 55.838802 0 0 0 5.125301 30.931639c-49.63449 11.959035-85.151925 40.193147-88.928462 75.440829-5.395053 53.051358 62.942289 102.955601 152.859843 110.958263a260.221404 260.221404 0 0 0 77.419015-4.04629c32.280402 32.999743 89.917555 57.906905 158.704485 64.021299 65.639815 6.114394 125.884577-6.384146 164.639043-30.482051a197.189198 197.189198 0 0 0 79.037531 24.007987c51.432842 4.76563 97.920217-8.182498 123.187051-31.201392 5.215218 0.71934 10.340519 1.438681 15.645654 1.978187 85.961183 7.912745 160.053248-26.975267 165.628137-77.59885a56.64806 56.64806 0 0 0-1.079011-17.983511c46.037788-12.318705 78.677861-38.574631 82.274563-71.934044z" fill="#F3E8D8" p-id="2880"></path><path d="M629.422886 1023.892638a223.624959 223.624959 0 0 1-33.629166-1.708433c-65.280145-6.114394-124.985402-29.852628-159.513743-63.661629a263.188684 263.188684 0 0 1-76.609757 3.596702c-59.165751-5.484971-110.958263-28.593783-137.843612-61.863278a73.102972 73.102972 0 0 1-17.983511-53.950533c3.866455-35.067846 35.967022-64.021299 87.220029-77.868603a59.165751 59.165751 0 0 1-4.136208-28.413947c5.574888-50.893336 78.677861-85.871265 162.93061-78.048438a242.237893 242.237893 0 0 1 40.912488 7.283322c22.029801-32.460237 78.048438-51.073171 138.113364-45.5882A181.723379 181.723379 0 0 1 734.44659 665.391346c35.967022-32.460237 98.459723-48.645397 165.897889-42.441086 71.934044 6.563982 132.988064 37.49562 158.075062 79.037531a154.388442 154.388442 0 0 1 22.299554 1.079011c56.64806 5.215218 106.102715 26.975267 131.819135 59.885092a69.686105 69.686105 0 0 1 17.983511 52.062264c-3.596702 33.08966-33.898918 60.69435-81.555222 74.181983a63.571711 63.571711 0 0 1 0 15.465819c-5.844641 53.141275-82.36448 89.917555-170.843355 81.555223a88.478874 88.478874 0 0 1-13.757386-1.708434c-26.975267 24.007987-75.081158 35.967022-125.165236 30.931639a203.303592 203.303592 0 0 1-78.408108-22.749141A260.76091 260.76091 0 0 1 629.422886 1023.892638z m-190.5353-75.081158l1.708434 1.708433c32.819908 33.269495 91.176401 56.827895 155.827123 62.942289 61.77336 5.754724 122.287875-5.395053 161.851599-29.852628l2.158021-1.258846 2.427774 1.258846a193.412661 193.412661 0 0 0 77.059345 22.928976c48.645397 4.585795 94.593268-6.923652 119.860101-30.122381l1.618516-1.438681h2.158021l15.285985 1.978187c83.982996 7.553075 155.917041-25.356751 160.772588-73.642478a52.96144 52.96144 0 0 0-0.899175-16.814583l-0.989094-4.136207 4.226126-1.168928c46.037788-12.048952 75.530746-37.405703 78.857695-67.618002a61.233855 61.233855 0 0 0-15.555737-45.498283c-24.007987-29.582876-71.934044-51.073171-125.884577-55.928719-7.912745-0.71934-16.005325-1.258846-24.007987-1.258846h-2.607609l-1.348763-2.158021c-22.749141-40.10323-82.634233-70.225611-152.410256-76.789592-65.909568-6.114394-129.481279 10.790107-161.851599 42.890674l-3.237032 3.237032-2.96728-3.68662c-22.119719-22.749141-60.784267-38.844384-103.315271-42.800756-58.356493-5.395053-112.576779 12.678375-131.909053 44.149519l-1.618516 2.877362-3.416867-0.899176a233.785643 233.785643 0 0 0-42.441086-7.732909c-79.487119-7.463157-148.184131 23.91807-152.859844 69.955857a53.141275 53.141275 0 0 0 5.395054 28.593783l2.427774 4.855548-5.305136 1.348763c-49.27482 11.959035-82.094728 39.653642-85.601512 71.934044a63.841464 63.841464 0 0 0 16.364995 47.926057c25.176915 30.931639 75.710581 53.950533 131.819135 58.626246a257.703713 257.703713 0 0 0 76.160169-4.04629z" fill="#F7F3ED" p-id="2881"></path><path d="M1394.531362 214.274972h-124.625732a20.321367 20.321367 0 0 1-13.937221-5.395053 18.523016 18.523016 0 0 1-5.844641-13.127963 19.152439 19.152439 0 0 1 19.781862-17.444006h20.141533a32.72999 32.72999 0 1 0 0-65.45998h-182.892307a32.72999 32.72999 0 0 0 0 65.45998h37.405703a18.433099 18.433099 0 1 1 2.967279 36.77628h-54.400121A49.724408 49.724408 0 0 0 1088.002417 314.712881h306.259192a49.724408 49.724408 0 0 0 4.945466-98.90931 44.958778 44.958778 0 0 0-4.945466 0z m-965.894377 440.59602h-71.934044a19.87178 19.87178 0 1 1-5.395053-39.383889 17.983511 17.983511 0 0 1 5.395053 0h22.749141a42.620921 42.620921 0 0 0 27.784525-10.250601 32.37032 32.37032 0 0 0 3.866455-45.768036 31.381227 31.381227 0 0 0-3.866455-3.866454 42.531004 42.531004 0 0 0-27.784525-10.160684H96.301701a42.620921 42.620921 0 0 0-27.874442 10.160684 32.550155 32.550155 0 0 0-3.776537 45.857953 37.405703 37.405703 0 0 0 3.776537 3.776537 42.620921 42.620921 0 0 0 27.874442 10.250601H215.802132a19.87178 19.87178 0 0 1 5.395054 39.383889 17.983511 17.983511 0 0 1-5.395054 0h-62.942288a53.950533 53.950533 0 0 0-13.397716 106.372468 55.658967 55.658967 0 0 0 13.397716 0h275.777141a53.950533 53.950533 0 0 0 13.397716-106.372468 55.658967 55.658967 0 0 0-13.397716-0.179835z" fill="#FFCB27" opacity=".26" p-id="2882"></path><path d="M101.87659 8.993194A11.959035 11.959035 0 0 0 89.917555 20.862311v49.544573a12.408623 12.408623 0 0 0 24.727328 0V21.221982A12.13887 12.13887 0 0 0 103.045518 8.993194z m0 117.432327A12.048952 12.048952 0 0 0 89.917555 138.384556v49.454655a12.408623 12.408623 0 1 0 24.727328 0v-49.005067a11.959035 11.959035 0 0 0-11.509447-12.49854z m-40.013312-33.988836H12.318705a12.408623 12.408623 0 0 0 0 24.727328h49.544573a12.408623 12.408623 0 0 0 0-24.727328z m129.571197 0h-49.454656a12.408623 12.408623 0 1 0 0 24.727328h49.454656a12.408623 12.408623 0 1 0 0-24.727328z m1204.895238 516.576354a7.73291 7.73291 0 0 0-7.642992 7.553075V647.407835a7.73291 7.73291 0 1 0 15.375902 0v-30.571968a7.73291 7.73291 0 0 0-7.37324-7.822828z m0 72.83322a7.642992 7.642992 0 0 0-7.642992 7.642992v30.571969a7.642992 7.642992 0 0 0 7.642992 7.642992 7.73291 7.73291 0 0 0 7.73291-7.642992v-30.841722a7.73291 7.73291 0 0 0-7.37324-7.373239z m-24.63741-21.220543h-30.571969a7.73291 7.73291 0 0 0-7.73291 7.642992 7.73291 7.73291 0 0 0 7.73291 7.553075h30.571969a7.642992 7.642992 0 1 0 0-15.196067z m79.936706 0h-30.571968a7.642992 7.642992 0 0 0-7.642993 7.642992 7.553075 7.553075 0 0 0 7.642993 7.553075h30.571968a7.553075 7.553075 0 0 0 7.642992-7.553075 7.642992 7.642992 0 0 0-7.642992-7.642992zM728.332196 899.17699c-159.333908 0-284.139474-40.4629-284.139474-92.255412V355.805204a6.024476 6.024476 0 0 1 6.024476-5.934558h556.229996a6.024476 6.024476 0 0 1 6.024476 5.934558v450.846621C1012.47167 858.444337 887.666104 899.17699 728.332196 899.17699z" fill="#F34541" p-id="2883"></path><path d="M1006.447194 355.805204v450.846621c0 47.926057-124.535814 86.320853-278.114998 86.320853S450.217198 854.218212 450.217198 806.651825V355.805204h556.229996m0-11.959035H450.217198a12.048952 12.048952 0 0 0-12.048952 11.959035v450.846621c0 63.841464 149.532894 98.279888 290.16395 98.279888s290.16395-34.438424 290.16395-98.279888V355.805204a12.048952 12.048952 0 0 0-12.048952-11.959035z" fill="#F1B622" p-id="2884"></path><path d="M728.332196 821.038634c-153.579184 0-278.114998-38.664549-278.114998-86.320853v71.934044c0 47.926057 124.535814 86.320853 278.114998 86.320853s278.114998-38.664549 278.114998-86.320853v-71.934044c0 47.566387-124.535814 86.320853-278.114998 86.320853z" fill="#E53939" p-id="2885"></path><path d="M450.217198 729.772316c0 47.926057 124.535814 86.320853 278.114998 86.320853s278.114998-38.394796 278.114998-86.320853" fill="#F34541" p-id="2886"></path><path d="M728.332196 822.207562c-159.333908 0-284.139474-40.552817-284.139474-92.345329a6.024476 6.024476 0 0 1 6.024476-5.934558 5.934559 5.934559 0 0 1 5.934559 5.934558c0 38.844384 109.339747 80.386294 272.180439 80.386295s272.180439-41.54191 272.180439-80.9258a6.024476 6.024476 0 1 1 11.959035 0c0 51.882429-124.805566 92.435247-284.139474 92.435247z" fill="#F1B622" p-id="2887"></path><path d="M450.217198 432.594796c0 47.926057 124.535814 86.320853 278.114998 86.320853s278.114998-38.664549 278.114998-86.320853" fill="#F34541" p-id="2888"></path><path d="M728.332196 524.850208c-159.333908 0-284.139474-40.4629-284.139474-92.255412a6.024476 6.024476 0 0 1 11.959035 0C456.151757 471.43918 565.491504 512.531503 728.332196 512.531503s272.180439-41.451993 272.180439-80.296377a6.024476 6.024476 0 1 1 11.959035 0c0 52.152182-124.805566 92.615082-284.139474 92.615082z" fill="#F1B622" p-id="2889"></path><path d="M728.332196 452.916164c-159.333908 0-284.139474-40.4629-284.139474-92.255412S568.998289 268.315423 728.332196 268.315423s284.139474 40.642735 284.139474 92.345329S887.666104 452.916164 728.332196 452.916164z" fill="#F6C48B" p-id="2890"></path><path d="M728.332196 274.160064c153.579184 0 278.114998 38.754466 278.114998 86.320853s-124.535814 86.320853-278.114998 86.320853-278.114998-38.574631-278.114998-86.320853 124.535814-86.320853 278.114998-86.320853m0-11.959035c-140.631056 0-290.16395 34.528341-290.16395 98.279888S587.70114 458.58097 728.332196 458.58097s290.16395-34.438424 290.16395-98.369806S868.963252 262.201029 728.332196 262.201029z" fill="#FA993F" p-id="2891"></path><path d="M677.978365 368.663415l-34.168671 57.816987L576.101775 395.638681 494.546553 92.166933 534.38003 17.98495l62.222948 46.847046z" fill="#F34541" p-id="2892"></path><path d="M644.439117 432.594796a6.923652 6.923652 0 0 1-2.427774-0.989093l-68.337342-30.482051a5.664806 5.664806 0 0 1-3.326949-3.956373l-81.824975-303.201995a6.204311 6.204311 0 0 1 0-4.40596l39.743559-74.181983a6.204311 6.204311 0 0 1 3.956373-3.057197 5.844641 5.844641 0 0 1 4.855548 1.07901l62.222948 46.936964a5.395053 5.395053 0 0 1 2.158021 3.237032L683.373419 367.854157a5.574888 5.574888 0 0 1 0 4.495877l-33.988836 57.727071a5.934559 5.934559 0 0 1-4.945466 2.517691z m-62.942288-40.82257l59.975009 26.975267 30.122381-51.073172-80.026624-299.605293L536.538051 26.976705l-35.967022 65.909568z" fill="#F1B622" p-id="2893"></path><path d="M545.260054 170.21537l0.629423-1.07901H548.497086a6.474064 6.474064 0 0 0 2.158021-1.258846 19.242357 19.242357 0 0 1 3.506785-2.517692l2.607609-1.978186a23.468482 23.468482 0 0 1 2.517692-1.528598 5.844641 5.844641 0 0 0 2.427774-1.888269 21.040708 21.040708 0 0 1-1.798351-2.427774 1.708434 1.708434 0 0 1 0-1.348763v-0.719341h-0.719341v-1.43868a1.528598 1.528598 0 0 1 0-0.899176l-0.899175-0.989093a18.882687 18.882687 0 0 1-0.539506-2.158021v-12.318705A6.563982 6.563982 0 0 1 557.488842 134.877771a14.476726 14.476726 0 0 0 0-2.787444l-0.899176-1.528598a1.888269 1.888269 0 0 0 0-0.989093v-2.60761l2.158021 0.809258a8.991756 8.991756 0 0 1 3.147115 0h0.989093a12.948128 12.948128 0 0 1 2.967279 2.517692 12.768293 12.768293 0 0 0 4.585795 2.877362h0.899176a3.506785 3.506785 0 0 1 2.337856 0l2.337857 1.438681a8.991756 8.991756 0 0 1 2.517691 1.888268 2.967279 2.967279 0 0 1 0 1.258846v1.168928h-6.294228a5.395053 5.395053 0 0 1-3.147115-0.71934l-1.079011 1.079011v1.798351a8.991756 8.991756 0 0 1 0 2.247938v5.215219a1.258846 1.258846 0 0 0 0 0.809258v2.517691h0.719341v2.877362h0.71934a0.809258 0.809258 0 0 0 0 0.629423h0.989093l4.04629-1.348763V152.861282a34.348506 34.348506 0 0 1 5.305136-0.809258 4.495878 4.495878 0 0 0 2.337857-0.71934h3.776537l1.618516 0.809258V152.861282a5.484971 5.484971 0 0 0 1.348763 1.528599v1.618516h-1.348763l-1.978186-0.629423v0.71934H584.464108l-1.348763 0.719341a7.283322 7.283322 0 0 1-2.877362 0.989093v0.539505H575.472353v0.719341l-1.348764 0.899175a6.024476 6.024476 0 0 0-2.247939 1.978186 5.844641 5.844641 0 0 1-1.348763 1.618516l-2.068104 1.168929-1.978186 1.798351h-0.899176a19.602027 19.602027 0 0 0-1.618516 1.888268 6.204311 6.204311 0 0 1-2.068103 1.978187 1.348763 1.348763 0 0 1-1.168928 0H557.488842a2.697527 2.697527 0 0 0-2.068104 0h-2.158022a8.991756 8.991756 0 0 1-2.607609-0.989094l-2.427774 3.956373-2.877361-2.517692z m19.781862 74.092066l0.719341-1.168928h2.517691a3.68662 3.68662 0 0 0 2.247939-1.348764c1.168928-0.899176 2.247939-1.708434 3.506785-2.517691l2.517691-1.888269 2.607609-1.528598a8.09258 8.09258 0 0 0 2.427774-1.798351l-1.798351-2.517692c0-0.629423-0.71934-0.989093-0.629423-1.258846v-0.809258h-0.71934a3.866455 3.866455 0 0 0 0-1.438681v-0.809258l-0.719341-1.07901a8.991756 8.991756 0 0 1 0-2.158022l-0.71934-2.697526v-2.877362a2.158021 2.158021 0 0 0 0-1.079011v-5.754723a9.801014 9.801014 0 0 1 0-3.237032 6.833734 6.833734 0 0 0 0-2.697527l-0.809258-1.618516v-2.158021l0.629423-1.438681 2.158021 0.899176a8.272415 8.272415 0 0 1 2.96728 0h1.07901a15.735572 15.735572 0 0 1 2.967279 2.517691 12.408623 12.408623 0 0 0 4.495878 2.877362h1.079011A2.517692 2.517692 0 0 1 593.455864 206.811815l2.427774 1.438681a15.375902 15.375902 0 0 1 2.337856 1.888269 3.776537 3.776537 0 0 1 0.629423 1.168928v1.258846h-4.945466a5.934559 5.934559 0 0 1-3.237032-0.719341l-0.899175 1.079011a3.057197 3.057197 0 0 0 0 1.798351 10.160684 10.160684 0 0 1 0 2.337857 2.967279 2.967279 0 0 0 0 1.258845v4.675713l0.539505 1.618516v3.776538h0.719341v0.539505h0.989093l3.956372-1.258846a25.806338 25.806338 0 0 1 5.125301-0.989093 4.855548 4.855548 0 0 0 2.517691-0.71934h3.596702l1.798352 0.71934v1.079011l1.348763 1.438681v1.43868h-2.607609v0.629423h-1.708434l-1.168928 0.809258a17.264171 17.264171 0 0 1-2.877362 0.809258v0.899176h-1.978186l-2.337856 0.629423v0.71934l-1.348764 0.809258a6.474064 6.474064 0 0 0-2.247939 2.158022c-0.71934 0.989093-1.258846 1.438681-1.43868 1.43868l-1.978187 1.168929-1.978186 1.798351h-0.899175a8.991756 8.991756 0 0 0-1.618516 1.978186 5.934559 5.934559 0 0 1-2.068104 1.888269H575.472353a9.711096 9.711096 0 0 1-2.697527-0.989093l-1.618516-0.719341-3.237032-3.237032z m14.027139 85.871265a6.653899 6.653899 0 0 1 0-1.888269l1.438681-2.877361a23.108812 23.108812 0 0 0 2.068103-5.395054 58.536328 58.536328 0 0 1 2.877362-8.45225 38.304878 38.304878 0 0 0 2.607609-7.642992 73.91223 73.91223 0 0 1 5.395054-12.948128 11.059859 11.059859 0 0 1-4.675713-2.427774l-0.899176-1.618516v-0.899176a2.247939 2.247939 0 0 0-1.978186 0.719341l-2.787444 2.337856a17.983511 17.983511 0 0 0-3.32695 5.934559 3.057197 3.057197 0 0 1-2.787444 0 5.215218 5.215218 0 0 1-1.708434-1.438681 4.04629 4.04629 0 0 1-1.168928-1.528598 4.40596 4.40596 0 0 1 1.348764-2.517692c3.32695-5.035383 5.484971-8.272415 6.204311-9.711096l1.079011-2.247939h-4.316043a2.247939 2.247939 0 0 1-1.798351-0.989093 18.523016 18.523016 0 0 1 3.776537-1.888269 9.890931 9.890931 0 0 1 5.125301 0 12.948128 12.948128 0 0 1 3.596702 1.618516l1.168928 1.258846a17.264171 17.264171 0 0 1-2.517691 6.114394h1.348763a46.757129 46.757129 0 0 0 1.888269-4.945466l1.258845-5.305135v8.272415l0.719341 1.618516v1.07901a3.776537 3.776537 0 0 1 1.618516-1.258845l4.675713 1.258845a2.337856 2.337856 0 0 0 0.989093 1.258846h0.989093l1.168928-0.899175 1.708434-2.517692 2.158021-3.147114c0.809258-1.079011 1.168928-1.888269 0.809258-2.427774l-0.719341-0.899176a19.062522 19.062522 0 0 0-4.76563 5.934559 4.495878 4.495878 0 0 1-4.226125-1.168928 4.585795 4.585795 0 0 1-1.348763-1.888269 1.798351 1.798351 0 0 1 0-0.989093l3.506784-11.149777v-0.71934a8.002662 8.002662 0 0 1-4.76563-1.079011l-1.708434 1.348763a1.888269 1.888269 0 0 1 0.809258-1.348763 9.621178 9.621178 0 0 1 1.978187-1.348763 30.751804 30.751804 0 0 1 5.754723 0c2.967279 0 4.76563 0.629423 5.215218 1.798351l0.719341 1.978186a4.76563 4.76563 0 0 1 0 2.247939 12.588458 12.588458 0 0 0 0 2.607609 17.444006 17.444006 0 0 0 6.024476-3.416867h6.204311v1.618516a26.166009 26.166009 0 0 0-6.204311 2.427774 14.296891 14.296891 0 0 1-3.68662 1.438681l0.809258 0.989093 2.247939 0.539505c1.438681 0.539505 2.337856 1.258846 2.517692 2.158021a4.40596 4.40596 0 0 1 0 2.158022l-1.438681 1.978186a11.149777 11.149777 0 0 1-1.978187 1.618516l-3.237032 2.697527h-3.057196l-1.888269 0.899175a51.522759 51.522759 0 0 0 17.354088 7.193404 41.362075 41.362075 0 0 1 7.553075 1.258846h1.618516s0 0.809258 0.71934 0.809258h1.168928l1.168929 0.629423h1.798351l2.158021 1.168928 2.697527 1.528599 2.517691 2.158021 1.438681 0.989093 0.719341 1.438681 0.71934 0.719341V305.721126h-2.158021a34.348506 34.348506 0 0 0-6.743817-0.71934l-7.193404-1.438681-8.991756 0.629423h-0.71934l-2.517692-0.719341-4.04629-1.978186v0.629423l-7.373239 3.956372h-1.528599l-1.07901 0.629423h-1.348764l-1.528598 0.719341-2.068104 0.539505a2.967279 2.967279 0 0 0-1.798351 2.158021 6.833734 6.833734 0 0 1 1.798351 1.798351v1.618516l0.899176 1.258846v1.348763h0.809258a4.495878 4.495878 0 0 0 1.708433 4.04629l2.877362 2.877362a5.395053 5.395053 0 0 0 2.247939-1.168928 28.234112 28.234112 0 0 0 4.04629-5.664806 25.176915 25.176915 0 0 0 3.057197-5.484971 3.416867 3.416867 0 0 0 0-1.348763c0-0.71934-1.258846-1.258846-2.697527-1.798351s0 1.079011 0 1.258845l-0.899176 1.258846 0.719341 2.337857v0.809258l-0.989093 2.787444a10.969942 10.969942 0 0 1-5.844641-2.697527 11.149777 11.149777 0 0 1-3.506785-3.596702l2.877362 0.899176c1.528598-1.168928 3.057197-2.337856 4.40596-3.596703a7.912745 7.912745 0 0 1 8.991755 0l3.866455 3.057197h0.719341v3.506785a4.945466 4.945466 0 0 1-1.348764 3.237032 3.506785 3.506785 0 0 1-3.326949 1.708433v0.809258h2.427774c1.528598 0 2.517692 0 2.967279-1.07901h0.719341a10.250601 10.250601 0 0 0 3.866455 2.158021 9.711096 9.711096 0 0 1 4.136207 2.427774l-4.316043 0.809258a4.76563 4.76563 0 0 1-2.247938 0H620.43113a26.975267 26.975267 0 0 0-12.048952 4.76563 48.105892 48.105892 0 0 1-6.833734 4.226125l-3.32695-0.989093a1.438681 1.438681 0 0 1 0.539505 1.888269 1.438681 1.438681 0 0 1-1.888268 0.539505l-2.607609-1.438681c-1.168928-0.539505-1.798351-1.079011-1.798352-1.43868H593.455864a3.776537 3.776537 0 0 0 2.427774-1.438681l1.978186-1.348764 2.787444-2.247938h1.798351a12.768293 12.768293 0 0 1-3.68662-2.517692 14.746479 14.746479 0 0 1-1.438681-2.607609 6.024476 6.024476 0 0 0-1.168928-2.877362 3.866455 3.866455 0 0 1 0-1.438681v-3.866455l0.719341-4.04629c0.809258 0 1.258846 0 1.438681-0.989093s-1.348763-0.71934-1.618516-0.629423a1.798351 1.798351 0 0 0 0 0.989094l-1.528599 4.76563-1.888269 3.866455c-0.809258 1.528598-1.618516 3.057197-2.517691 4.40596l-3.596702 4.136208a12.318705 12.318705 0 0 1-1.438681 1.888268l-2.068104 1.348764-0.71934 0.71934h-0.989093z m15.735572-41.451993z m1.618516 13.757386h0.989093l2.517692-1.528598a15.285984 15.285984 0 0 1 4.585795-2.158022h1.258846l2.517691 0.719341h1.348763l2.068104 1.258845c-3.596702-2.607609-7.193404-5.484971-10.700189-8.45225v1.978186l-1.708433 1.798352c-1.079011 2.068104-1.978186 4.226125-2.877362 6.384146z" fill="#F6C48B" p-id="2894"></path><path d="M899.804974 395.638681l-58.536329 32.999743L797.838466 368.663415l81.465305-303.921337 71.394539-44.329354 30.482051 71.934044z" fill="#F34541" p-id="2895"></path><path d="M841.268645 435.112488a6.204311 6.204311 0 0 1-4.76563-2.517692l-43.520097-59.975009a6.204311 6.204311 0 0 1-0.899175-5.035383l81.465305-303.921336a5.664806 5.664806 0 0 1 2.607609-3.506785l71.934044-44.419272a6.384146 6.384146 0 0 1 4.945465-0.629423 5.664806 5.664806 0 0 1 3.68662 3.326949l30.482051 71.934045a7.37324 7.37324 0 0 1 0 3.956372l-81.64514 303.201996a6.114394 6.114394 0 0 1-2.877361 3.776537l-58.446411 32.909825a6.743817 6.743817 0 0 1-2.96728 0.899176z m-36.956115-67.528084l38.664549 53.950533 51.612677-29.133288 80.206459-299.695211-26.975267-62.942289-63.841464 39.653642z" fill="#F1B622" p-id="2896"></path><path d="M884.159319 157.806748l1.079011-0.629423h0.71934l1.618516 0.989093a5.934559 5.934559 0 0 0 2.517692 0h7.373239a8.991756 8.991756 0 0 1 3.147115 0 8.182498 8.182498 0 0 0 2.967279 0 17.983511 17.983511 0 0 1 0-3.147114v-6.384147a19.512109 19.512109 0 0 1 0.629423-2.158021l0.71934-2.607609 0.989093-1.798351v-0.809258l0.899176-0.899176v-1.258846l2.158021-2.517691v-1.258846a10.610272 10.610272 0 0 1 1.978187-2.517691 6.653899 6.653899 0 0 0 1.528598-2.247939 6.024476 6.024476 0 0 0 0-1.798351v-1.888269l1.168928-0.989093 1.618516 1.798351a14.746479 14.746479 0 0 1 2.337857 1.798351h1.07901a25.716421 25.716421 0 0 1 1.348764 3.68662 12.408623 12.408623 0 0 0 2.427774 4.855548h1.07901a3.147114 3.147114 0 0 1 1.798351 1.258846l1.258846 2.517691a11.059859 11.059859 0 0 1 1.258846 2.787444v2.068104h-0.719341l-2.337856-1.258846h-1.258846l-1.07901-0.539505V143.869527a5.215218 5.215218 0 0 1-2.427774-2.158022h-1.438681a4.316043 4.316043 0 0 0-1.438681 2.158022 9.531261 9.531261 0 0 1-1.438681 1.888268l-0.71934 1.079011v0.719341l-0.809258 1.07901v4.04629l-0.719341 0.629423-1.348763 2.607609v1.348764a0.809258 0.809258 0 0 0 0 0.629422h0.809258l4.226125 0.809258a33.539248 33.539248 0 0 1 5.035383 1.798352 6.923652 6.923652 0 0 0 2.427774 0.71934l1.528598 0.629423 0.719341 0.899175 1.07901 1.618516v1.079011a6.653899 6.653899 0 0 0 0 1.888269 0.71934 0.71934 0 0 0 0 0.629423v1.258845h-1.43868a4.40596 4.40596 0 0 1-1.438681-1.438681h-1.708434a3.866455 3.866455 0 0 0-1.438681 0 8.002662 8.002662 0 0 1-2.877361-0.71934H917.159062l-2.517692-0.539505h-1.528598a5.934559 5.934559 0 0 0-3.057197 0.539505l-1.888269 0.71934h-5.844641a11.959035 11.959035 0 0 0-2.517691 0.899176 5.484971 5.484971 0 0 1-2.697527 0.71934 2.158021 2.158021 0 0 1-1.168928-0.629422h-2.247939a5.215218 5.215218 0 0 0-1.708434-1.438681 8.09258 8.09258 0 0 1-1.708433-1.348764 9.890931 9.890931 0 0 1-1.888269-1.978186l-1.07901-1.618516-1.168929-4.316042z m-19.961697 74.092065l1.079011-0.629423h0.71934l1.528598 0.989093a6.384146 6.384146 0 0 0 2.60761 0h7.463157a8.182498 8.182498 0 0 1 2.967279 0 8.991756 8.991756 0 0 0 3.057197 0 17.983511 17.983511 0 0 1 0-3.147114 1.708434 1.708434 0 0 1 0-1.348763l0.539505-1.528599v-0.71934a1.798351 1.798351 0 0 0 0-1.348763v-4.405961l0.719341-2.607609 0.989093-1.708433v-1.168929l0.809258-0.899175v-1.258846l2.068103-2.517691v-1.258846a16.724665 16.724665 0 0 1 1.888269-2.517692 7.103487 7.103487 0 0 0 1.708434-2.247939v-3.686619l1.168928-0.899176 1.618516 1.798351a9.621178 9.621178 0 0 1 2.517691 1.708434h0.899176a14.027139 14.027139 0 0 1 1.348763 3.686619 12.588458 12.588458 0 0 0 2.517692 4.855548h0.989093a3.147114 3.147114 0 0 1 1.798351 1.258846l1.258846 2.517692a11.689282 11.689282 0 0 1 1.258846 2.877362 3.416867 3.416867 0 0 1 0 1.348763h-0.899176l-2.158021-1.168928h-1.258846l-1.079011-0.629423v-0.719341a4.585795 4.585795 0 0 1-2.337856-2.158021h-1.438681a4.585795 4.585795 0 0 0-1.168928 1.438681 8.991756 8.991756 0 0 1-1.348764 1.888269l-0.809258 1.07901v0.719341l-0.71934 1.07901v0.899176l-0.71934 0.71934a0.989093 0.989093 0 0 0 0 0.719341V224.795326l-0.809258 0.539506v0.629423l-1.348764 2.517691v1.888269c0 0.629423 0 0 0.989093 0l4.04629 0.899175a32.550155 32.550155 0 0 1 4.945466 1.798351 5.484971 5.484971 0 0 0 2.337856 0.719341l0.899176 0.539505v0.899176h0.809258l0.71934 0.899175 1.168928 1.618516V242.778837h0.629423v-0.629422l-1.438681-1.528599h-3.147114a16.454913 16.454913 0 0 1-2.877362-0.629423H899.175551l-2.337857-0.629423h-2.337856a11.869117 11.869117 0 0 0-2.967279 0.719341l-1.888269 0.629423h-8.991755a7.103487 7.103487 0 0 0-2.337857 0.71934 5.215218 5.215218 0 0 1-2.787444 0.719341h-1.079011v-0.719341H872.200284a4.495878 4.495878 0 0 0-1.528598-1.348763l-1.798351-1.258846-1.798351-2.158021a10.610272 10.610272 0 0 0-1.168929-1.618516l-1.258845-4.316043z m-30.841721 80.9258l1.43868-1.348764a26.076091 26.076091 0 0 1 2.60761-1.708433 25.176915 25.176915 0 0 0 4.495877-3.68662 42.980591 42.980591 0 0 1 6.294229-5.844641 39.204054 39.204054 0 0 0 6.114394-5.395053 90.816731 90.816731 0 0 1 11.059859-8.542168 11.509447 11.509447 0 0 1-2.787444-4.40596 7.283322 7.283322 0 0 1 0-1.978186H863.208529a2.247939 2.247939 0 0 0-2.158022 0l-3.506784 0.629423a17.174253 17.174253 0 0 0-5.844641 3.596702 4.226125 4.226125 0 0 1-2.427774-1.438681 20.23145 20.23145 0 0 1-0.719341-2.158021 3.32695 3.32695 0 0 1 0-1.888269 6.384146 6.384146 0 0 1 2.158022-1.708434 90.546978 90.546978 0 0 0 10.160683-5.305135l2.158022-1.438681-3.057197-3.32695a1.798351 1.798351 0 0 1-1.079011-1.708433 15.196067 15.196067 0 0 1 4.04629 0 10.430436 10.430436 0 0 1 4.40596 2.877361 11.509447 11.509447 0 0 1 2.337857 3.147115v1.708433a19.062522 19.062522 0 0 1-5.305136 3.956373l0.989093 0.809258a36.506527 36.506527 0 0 0 4.136208-3.237032l3.776537-3.956373v0.629423l-0.71934 1.258846a8.45225 8.45225 0 0 0-1.079011 1.978186l-2.787444 3.68662v2.607609a4.04629 4.04629 0 0 1 2.068103 0l3.416868 3.416867a2.517692 2.517692 0 0 0 0 1.618516l0.71934 0.719341h1.618516l2.607609-1.168929a31.830815 31.830815 0 0 1 3.506785-1.708433q1.888269-0.809258 1.888268-1.618516v-1.348763a26.435761 26.435761 0 0 0-7.193404 2.967279 5.215218 5.215218 0 0 1-3.147114-3.237032 4.76563 4.76563 0 0 1 0-2.247939v-0.809258l8.991755-7.912745v-0.899175a8.272415 8.272415 0 0 1-3.596702-3.416867h-1.978186s0-0.629423 1.438681-0.719341a4.76563 4.76563 0 0 1 2.247938 0 17.983511 17.983511 0 0 1 5.125301 2.517692c2.697527 1.438681 3.866455 2.877362 3.596702 4.04629a7.463157 7.463157 0 0 0 0 2.158021 8.991756 8.991756 0 0 1-1.528598 1.708433 7.463157 7.463157 0 0 0-1.798351 1.978187 15.016232 15.016232 0 0 0 6.923651 0 11.689282 11.689282 0 0 0 2.068104 1.618516 7.73291 7.73291 0 0 1 1.798351 1.168928v0.71934l0.629423 0.809258v0.719341h-0.899175a41.092323 41.092323 0 0 0-6.653899-1.079011 14.566644 14.566644 0 0 1-3.956373 0 2.158021 2.158021 0 0 0 0 1.079011 14.656561 14.656561 0 0 0 1.528599 1.798351 2.877362 2.877362 0 0 1 1.07901 3.147114 4.76563 4.76563 0 0 1-0.989093 1.888269l-2.158021 0.899176a11.7792 11.7792 0 0 1-2.517692 0H881.19204l-2.877362-0.989094h-2.158021a51.702594 51.702594 0 0 0 11.959035 14.836397 50.713501 50.713501 0 0 1 5.844641 4.855548 4.226125 4.226125 0 0 0 1.348763 1.168928 1.168928 1.168928 0 0 0 0 1.079011l0.809258 0.989093v1.168928h0.989093v0.809258l1.168928 2.158021 1.708434 2.697527 1.079011 3.057197a3.32695 3.32695 0 0 0 0.71934 1.618516v2.517692h-0.809258l-0.899176-0.989094a34.528341 34.528341 0 0 0-5.48497-4.04629l-5.305136-4.585795-7.553075-5.395053v-0.989093l-1.888268-1.798351-2.517692-3.776538h-10.880024l-1.079011-0.71934h-3.68662a2.877362 2.877362 0 0 0-2.427774 1.528598 5.574888 5.574888 0 0 1 0 2.427774v4.40596a9.890931 9.890931 0 0 0 0 4.585796l1.168929 3.776537a5.574888 5.574888 0 0 0 2.427774 0 28.953453 28.953453 0 0 0 6.384146-2.877362 33.809001 33.809001 0 0 0 5.484971-3.237032v-0.809258a3.68662 3.68662 0 0 0-1.348763-2.877361s-0.71934 0.809258-0.899176 0.809258l-1.348763 0.71934v2.337856l-2.158022 1.888269a9.531261 9.531261 0 0 1-3.866455-5.305136 12.048952 12.048952 0 0 1-1.258845-4.76563l2.158021 2.158021a55.479131 55.479131 0 0 0 5.574888-0.809258 8.45225 8.45225 0 0 1 7.553075 4.136208L881.19204 314.712881v0.719341l-0.989093 1.978186v1.258846c0 0.809258-1.168928 1.528598-2.787444 2.158021a3.237032 3.237032 0 0 1-4.316043 1.798351 5.125301 5.125301 0 0 1-1.168928-0.71934h-2.068104a13.847303 13.847303 0 0 1 3.057197 1.528598c1.258846 0.71934 2.247939 0.989093 3.057197 0h0.71934a10.700189 10.700189 0 0 0 2.337857 3.68662 10.250601 10.250601 0 0 1 2.337856 4.226125l-4.136208-1.348763-2.068103-0.809258-2.96728-1.618516a26.975267 26.975267 0 0 0-13.127963-2.068104 59.435504 59.435504 0 0 1-8.002662 0l-2.427774-2.517691h-0.809258l-1.168928-1.888269c-0.899176-1.258846-1.079011-1.978186-0.899176-2.337857a4.675713 4.675713 0 0 0 0.989093 0.899176 7.73291 7.73291 0 0 0 2.877362 0h7.283322a12.13887 12.13887 0 0 1-1.978186-4.226125 8.272415 8.272415 0 0 1 0-2.967279v-3.057197a2.517692 2.517692 0 0 1 0-1.618516l0.809258-1.618516 0.71934-1.258846 2.607609-3.237032h1.798351s-0.71934-1.258846-0.899175-1.258846h-1.079011l-3.776537 3.416867-3.596702 2.517692a49.454655 49.454655 0 0 1-4.316043 2.517691l-5.125301 1.618516c-1.438681 0.71934-2.158021 1.079011-2.247939 0.989093H836.233262z m29.04337-15.016232a1.528598 1.528598 0 0 0 0.899175 0h2.877362a23.558399 23.558399 0 0 1 5.035383 0H872.200284l1.798351 1.888269 0.989094 0.71934 1.168928 2.158022c-1.348763-3.147114-2.787444-7.013569-4.316043-11.509448h-0.809258l-1.079011 0.989094-2.337856 0.71934a49.454655 49.454655 0 0 0-5.574888 5.035383z m5.395053-12.85821z" fill="#F6C48B" p-id="2897"></path><path d="M742.719005 440.597459a6.114394 6.114394 0 0 1-3.866455-1.348764l-57.547235-46.936963a6.204311 6.204311 0 0 1-2.158021-4.675713v-314.711443a5.754724 5.754724 0 0 1 1.708433-4.04629l57.547235-60.964102a5.664806 5.664806 0 0 1 4.316043-1.888269 5.574888 5.574888 0 0 1 4.40596 2.337856l48.015975 61.323773a5.934559 5.934559 0 0 1 1.258845 3.68662v314.711442a5.664806 5.664806 0 0 1-1.798351 4.316043L746.315707 439.248695a6.114394 6.114394 0 0 1-3.596702 1.348764z" fill="#FFCB27" p-id="2898"></path><path d="M742.719005 11.960474l47.926057 61.41369v314.711442l-47.926057 46.847047-57.547235-46.936964v-314.711443l57.547235-61.41369m0-11.869117a11.959035 11.959035 0 0 0-8.991756 3.866455l-57.547235 61.323772a12.048952 12.048952 0 0 0-3.237032 8.182498v314.711442a12.228787 12.228787 0 0 0 4.40596 8.991756l57.547236 46.936964a11.869117 11.869117 0 0 0 15.915407-0.719341l48.015974-46.936964a12.49854 12.49854 0 0 0 3.596703-8.991755v-314.711443a11.959035 11.959035 0 0 0-2.158022-6.563981L752.160348 4.677152a12.048952 12.048952 0 0 0-8.991755-4.675713z" fill="#FA993F" p-id="2899"></path><path d="M713.85547 161.853038l0.809258-0.989093h0.71934l1.798351 0.629423a4.945466 4.945466 0 0 0 2.517692-0.629423l3.956372-1.618516 2.96728-1.079011 3.057197-0.899175a5.215218 5.215218 0 0 0 2.697526-1.168929 27.424854 27.424854 0 0 1-1.168928-2.877361 3.416867 3.416867 0 0 1 0-1.348764v-1.258846a3.866455 3.866455 0 0 0 0-1.43868v-2.158022a5.125301 5.125301 0 0 1 0-2.337856v-5.215218a2.158021 2.158021 0 0 0 0-1.079011v-1.348763l1.438681-2.96728v-1.258845a11.959035 11.959035 0 0 1 1.168928-2.96728c0.71934-1.348763 1.079011-2.158021 0.989093-2.607609a5.395053 5.395053 0 0 0 0-1.708433v-2.158022l0.809258-1.168928 1.978186 1.258846a15.735572 15.735572 0 0 1 2.877362 1.07901h1.079011a26.076091 26.076091 0 0 1 2.247939 3.237032 10.880024 10.880024 0 0 0 3.596702 3.956373h0.989093a2.967279 2.967279 0 0 1 2.158021 0.899175l1.888269 1.978187a12.49854 12.49854 0 0 1 1.888269 2.427774 3.416867 3.416867 0 0 1 0 1.348763v0.539505h-5.754724v-0.539505a5.844641 5.844641 0 0 1-2.877362-1.438681l-1.258845 0.719341a2.967279 2.967279 0 0 0-0.719341 1.618516 7.822827 7.822827 0 0 1-0.899175 2.158021V152.861282a1.618516 1.618516 0 0 1 0 2.158022 1.618516 1.618516 0 0 1-2.158022-0.449588h5.215218a28.953453 28.953453 0 0 1 6.833735 0 11.7792 11.7792 0 0 0 2.517691 0h2.337857l0.989093 0.809258 1.438681 1.258846v0.899175a7.013569 7.013569 0 0 0 0.989093 1.798351v1.618516h-1.079011l-1.798351-1.07901v0.539505h-3.147115a5.574888 5.574888 0 0 1-2.967279 0h-4.495878a0.71934 0.71934 0 0 1 0 0.629423h-1.43868a7.822827 7.822827 0 0 0-2.697527 1.438681c-0.989093 0.71934-1.438681 1.079011-1.708434 1.07901l-2.247939 0.629423-2.427774 1.168928h-0.809258a7.013569 7.013569 0 0 0-2.158021 1.438681 7.013569 7.013569 0 0 1-2.517691 1.438681 2.967279 2.967279 0 0 1-1.258846 0h-3.057197a6.294229 6.294229 0 0 0-2.068104-0.989093l-1.888268-0.71934a11.419529 11.419529 0 0 1-2.427774-1.618516l-4.04629 1.618516-2.337857-3.776538z m0 76.340004l0.809258-0.899175h2.517691a5.934559 5.934559 0 0 0 2.517692 0l3.956372-1.708434 2.96728-1.079011 3.057197-0.809258a6.204311 6.204311 0 0 0 2.697526-1.258845 27.424854 27.424854 0 0 1-1.168928-2.877362 2.967279 2.967279 0 0 1 0-1.258846v-1.348763a3.866455 3.866455 0 0 0 0-1.438681v-2.158021a4.76563 4.76563 0 0 1 0-2.247939V215.803571a2.158021 2.158021 0 0 0 0-1.079011v-1.258846l1.438681-3.057196v-1.168929a10.790107 10.790107 0 0 1 1.168928-2.967279 5.395053 5.395053 0 0 0 0.989093-2.697527 4.855548 4.855548 0 0 0 0-1.618516v-2.158021l0.809258-1.258846 1.978186 1.348764a8.991756 8.991756 0 0 1 2.877362 1.07901h1.079011a20.770955 20.770955 0 0 1 2.247939 3.237032 10.880024 10.880024 0 0 0 3.596702 3.956373h0.989093a2.877362 2.877362 0 0 1 2.158021 0.809258l1.888269 2.068103a12.49854 12.49854 0 0 1 1.888269 2.427774 2.967279 2.967279 0 0 1 0 1.258846h-0.809258l-2.427774-0.539505h-2.517692v-0.629423a5.844641 5.844641 0 0 1-2.877362-1.438681l-1.258845 0.719341a2.967279 2.967279 0 0 0-0.719341 1.708433 10.969942 10.969942 0 0 1-0.899175 2.158021v7.553075l-2.517692 2.247939v3.506785a0.539505 0.539505 0 0 1 0 0.539505h5.215218a25.266833 25.266833 0 0 1 5.215218 0 5.934559 5.934559 0 0 0 2.517692 0h0.989093l0.629423 0.629423H755.307463l0.989093 0.809258 1.438681 1.258846V233.787082a11.149777 11.149777 0 0 0 0.899175 1.798351v0.989093h0.539506l-2.877362 1.528599v0.629422h-2.787444a8.182498 8.182498 0 0 1-2.96728 0H746.315707a0.71934 0.71934 0 0 1 0 0.629423h-1.438681a7.822827 7.822827 0 0 0-2.697526 1.438681c-0.989093 0.71934-1.438681 1.079011-1.708434 1.079011h-2.247939l-2.697526 0.899175h-0.809258a7.013569 7.013569 0 0 0-2.158022 1.438681 7.013569 7.013569 0 0 1-2.517691 1.438681h-4.316043a6.294229 6.294229 0 0 0-2.068104-0.989093l-1.888268-0.71934A11.419529 11.419529 0 0 1 719.340441 242.778837l-1.438681-1.258845-2.247939-3.776538z m-8.991756 86.950276a2.068104 2.068104 0 0 1 0.989093-1.708434l2.158022-2.337856a25.806338 25.806338 0 0 0 3.326949-4.855548 64.111217 64.111217 0 0 1 4.855548-7.283322 37.855291 37.855291 0 0 0 4.40596-6.743817 78.048438 78.048438 0 0 1 8.991756-11.149777 10.430436 10.430436 0 0 1-3.956372-3.416867v-1.978186l0.71934-0.539505a2.697527 2.697527 0 0 0-2.337856 0l-3.057197 1.528598a15.915407 15.915407 0 0 0-4.855548 4.945466 5.754724 5.754724 0 0 1-2.697527-0.719341l-1.258846-1.978186a3.956372 3.956372 0 0 1-0.71934-1.798351s0-1.079011 1.708433-2.158021c4.585795-3.956372 7.463157-6.563982 8.991756-7.73291l1.618516-1.978186-4.40596-1.079011a1.708434 1.708434 0 0 1-1.438681-1.258846 12.228787 12.228787 0 0 1 3.956372-0.989093 11.239694 11.239694 0 0 1 5.035383 1.708434 14.746479 14.746479 0 0 1 2.96728 2.337856 6.833734 6.833734 0 0 1 0.809258 1.618516 27.874442 27.874442 0 0 1-4.04629 5.125301h1.168928a37.49562 37.49562 0 0 0 3.237032-4.226125l2.517691-4.765631v2.158022a8.002662 8.002662 0 0 0 0 2.068103l-1.618516 4.316043v3.956373c1.079011 0 1.798351-0.71934 1.978187-0.629423L737.323952 287.737615a2.517692 2.517692 0 0 0 0 1.618516l0.809258 0.539505 1.438681-0.71934 2.247938-1.798351 2.877362-2.517692c1.258846-0.899176 1.708434-1.528598 1.438681-2.158021v-1.168928a23.198729 23.198729 0 0 0-6.114394 4.585795 4.76563 4.76563 0 0 1-3.776537-2.337856 5.574888 5.574888 0 0 1-0.71934-2.158022 1.528598 1.528598 0 0 1 0-0.899175l6.204311-9.890931V269.754104a8.362333 8.362333 0 0 1-4.316043-2.427774l-2.068104 0.989093s0-0.629423 1.079011-1.079011l2.158021-0.71934a28.6837 28.6837 0 0 1 5.664806 1.079011c2.967279 0.809258 4.585795 1.798351 4.675713 3.147114a11.239694 11.239694 0 0 1 0 1.978186 8.991756 8.991756 0 0 1-1.07901 2.068104 8.991756 8.991756 0 0 0-1.168929 2.517692 18.792769 18.792769 0 0 0 6.6539-1.798352 12.85821 12.85821 0 0 0 2.427773 0.809258l2.068104 0.899176h0.719341V278.745859l-0.719341 0.719341a28.6837 28.6837 0 0 0-6.743816 0.71934 14.566644 14.566644 0 0 1-3.956373 0 6.743817 6.743817 0 0 0 0.629423 1.079011l1.978186 1.258846a2.967279 2.967279 0 0 1 1.798351 2.697526 4.40596 4.40596 0 0 1 0 2.158022 5.395053 5.395053 0 0 1-1.888268 1.258846 8.002662 8.002662 0 0 1-2.247939 1.258845h-7.103487A52.511852 52.511852 0 0 0 755.307463 301.405083a51.882429 51.882429 0 0 1 6.833734 3.147115 4.136208 4.136208 0 0 0 2.158021 1.168928v0.989093l1.079011 0.809258 0.989093 0.809258h0.899176l0.71934 0.719341 1.708434 1.798351 2.247938 2.158021 1.798352 2.697527a6.294229 6.294229 0 0 0 1.258845 1.43868v2.96728H773.290974l-1.079011-0.719341a55.299296 55.299296 0 0 0-6.384146-2.517691l-6.294229-2.96728-7.553075-2.787444a1.258846 1.258846 0 0 1 0-0.809258l-2.337856-1.348763L746.315707 305.721126v0.539505l-8.182497 1.978187h-7.822828a2.967279 2.967279 0 0 0-1.888268 1.978186 8.182498 8.182498 0 0 1 1.168928 2.337856v4.316043h0.71934a10.880024 10.880024 0 0 0 0.629423 4.495878l2.068104 3.416867a5.125301 5.125301 0 0 0 2.337856 0 26.076091 26.076091 0 0 0 5.395054-4.495878 21.310461 21.310461 0 0 0 4.495878-4.495878 3.416867 3.416867 0 0 0 0-1.348763 4.585795 4.585795 0 0 0-2.068104-2.427774v1.07901l-1.168928 1.079011v3.147115l-1.708434 2.427774a10.340519 10.340519 0 0 1-5.035383-4.136208 12.768293 12.768293 0 0 1-2.427774-4.316043l2.517691 1.438681a26.975267 26.975267 0 0 0 5.305136-2.158021c2.427774-1.168928 5.125301 0 8.362333 2.068104l3.147114 2.967279h0.629423v3.506785a4.945466 4.945466 0 0 1-2.337856 2.877361 3.506785 3.506785 0 0 1-3.596702 0.719341L746.315707 323.704637h-0.989093a17.084335 17.084335 0 0 1 3.237032 0.809258 3.237032 3.237032 0 0 0 3.147115 0h0.809258a8.991756 8.991756 0 0 0 3.147114 2.967279 13.038045 13.038045 0 0 1 3.506785 3.506785h-6.653899l-4.04629-0.989093a30.032463 30.032463 0 0 0-13.217881 1.438681 53.950533 53.950533 0 0 1-7.642992 2.427774l-2.96728-1.798351h-0.71934l-1.798351-1.528599c-0.989093-0.899176-1.438681-1.618516-1.348763-1.978186h1.168928a6.743817 6.743817 0 0 0 2.697526-0.809258l2.247939-0.71934 3.32695-1.438681h1.348763a12.318705 12.318705 0 0 1-2.967279-3.506785 10.430436 10.430436 0 0 1-0.719341-2.877362v-2.967279a5.395053 5.395053 0 0 1 0-1.708434v-3.686619l1.798352-3.68662a2.517692 2.517692 0 0 0 1.618516 0c-0.539505-0.71934-1.079011-1.079011-1.258846-0.989093s0 0-0.899176 0.71934l-2.607609 4.226125-2.967279 3.32695a18.972604 18.972604 0 0 1-3.506785 3.596702l-4.585795 2.967279-1.888269 1.438681-2.158021 0.899176h-1.888269z m24.007988-22.209636h0.989093l2.877361-0.809258a21.939883 21.939883 0 0 1 4.855548-0.809258h1.348764l2.247939 1.258846h1.258845l1.618516 1.798351a126.514 126.514 0 0 1-8.09258-10.880025h-0.71934l-0.719341 1.168929-2.158021 1.348763a70.585281 70.585281 0 0 0-3.416867 6.923652z m1.798351-13.757386z" fill="#F34541" p-id="2900"></path><path d="M742.089582 638.41608a30.571969 30.571969 0 0 1-2.877362 3.057197 162.57094 162.57094 0 0 0 67.887754 29.582875 72.743302 72.743302 0 0 0-11.959034 15.735572 175.159397 175.159397 0 0 1-33.269496-12.408622v11.059859h-68.876847V674.383102a304.640677 304.640677 0 0 1-32.280402 13.307798 72.743302 72.743302 0 0 0-11.959035-15.735572 166.167642 166.167642 0 0 0 77.059345-41.991498l8.991755 4.316042c-4.226125-2.697527-9.711096-6.474064-13.21788-8.45225h-17.983511a64.650722 64.650722 0 0 1 6.833734 14.476726l-18.073429 5.574889a112.756614 112.756614 0 0 0-8.991755-19.691945h-2.068104a141.710067 141.710067 0 0 1-15.645655 22.749142A130.290537 130.290537 0 0 0 649.564418 638.41608 112.576779 112.576779 0 0 0 674.381663 595.615324l18.702852 4.76563c-1.168928 3.237032-2.517692 6.653899-4.04629 9.980849h35.967022v11.959034a75.620664 75.620664 0 0 0 16.634747-26.975266l18.792769 4.675713a77.508932 77.508932 0 0 1-4.40596 10.070766h46.037788v15.82549h-24.727327a96.121866 96.121866 0 0 1 9.621178 15.645654l-19.062522 4.675713a96.931124 96.931124 0 0 0-11.239694-19.691944h-9.621178a67.528084 67.528084 0 0 1-8.991756 10.340518z m43.520097 55.658966a328.738581 328.738581 0 0 1-17.264171 38.035126h33.08966v17.983511H655.678812v-17.983511h91.086483a193.142908 193.142908 0 0 0 20.860873-43.160426z m-97.560547-3.506784a164.998714 164.998714 0 0 1 16.994417 28.773617l-16.994417 8.002663a176.867831 176.867831 0 0 0-15.915408-29.582876z m64.291051-21.580213A131.009878 131.009878 0 0 1 728.332196 651.27429a158.88432 158.88432 0 0 1-24.907163 17.444006z m-22.839059 19.242356a175.339232 175.339232 0 0 1 14.656562 30.751804l-16.814583 6.743817a213.194523 213.194523 0 0 0-13.487633-31.65098z" fill="#F9CC67" p-id="2901"></path></svg>